<svg width="50" height="56" viewBox="317 22 49.454 56" fill="none" xmlns="http://www.w3.org/2000/svg">
  <path d="M317.004 22.0099C317.004 22.227 316.995 22.375 317.004 22.523C317.38 26.628 317.755 30.7329 318.12 34.8478C318.634 40.6698 319.138 46.4917 319.651 52.3038C320.234 58.8362 320.826 65.3588 321.389 71.8913C321.429 72.3649 321.597 72.5721 322.041 72.6905C328.362 74.4273 334.663 76.1739 340.983 77.9007C341.408 78.0191 341.922 78.0388 342.346 77.9204C348.687 76.1837 355.017 74.4174 361.358 72.6708C361.842 72.5327 362.01 72.3156 362.049 71.8222C362.247 69.3553 362.484 66.8785 362.701 64.4115C363.066 60.3263 363.422 56.241 363.787 52.1558C364.212 47.3601 364.647 42.5742 365.071 37.7785C365.387 34.2064 365.723 30.6441 366.039 27.072C366.187 25.3945 366.316 23.717 366.454 22H317.004V22.0099ZM356.914 36.2589C356.588 39.8705 356.262 43.4919 355.936 47.1035C355.561 51.2578 355.185 55.4121 354.81 59.5566C354.701 60.7506 354.543 61.9446 354.514 63.1484C354.494 63.7898 354.217 63.9576 353.684 64.1056C349.872 65.1319 346.07 66.1877 342.267 67.2337C342.099 67.283 341.941 67.3422 341.774 67.3916C341.714 67.362 341.655 67.3422 341.586 67.3126C337.517 66.2074 333.448 65.0924 329.379 63.9675C329.211 63.9181 328.994 63.6517 328.974 63.4642C328.688 60.3855 328.431 57.3067 328.154 54.1688H334.367C334.475 55.4023 334.594 56.6555 334.692 57.9185C334.781 59.0829 334.771 59.0829 335.868 59.379C337.833 59.902 339.808 60.4151 341.774 60.9282L341.754 60.8789C343.907 60.3065 346.06 59.7441 348.213 59.1323C348.41 59.0731 348.637 58.7573 348.667 58.5402C348.795 57.5929 348.865 56.6357 348.944 55.6884C349.072 54.1589 349.2 52.6294 349.339 51.0309H341.754L341.774 50.9914C341.724 50.9914 341.665 50.9914 341.616 50.9914H327.868C327.68 48.9488 327.503 46.9259 327.315 44.8438H341.625C341.675 44.8438 341.734 44.8438 341.783 44.8438L341.764 44.8043H349.892C350.079 42.6828 350.267 40.6105 350.455 38.4988H341.754L341.774 38.4594C341.724 38.4594 341.665 38.4594 341.616 38.4594C336.747 38.4692 331.878 38.4692 327.009 38.4791C326.94 38.4791 326.871 38.4495 326.742 38.41C326.564 36.397 326.377 34.384 326.199 32.3118H341.616C341.665 32.3118 341.724 32.3118 341.774 32.3118L341.754 32.2723H357.24C357.131 33.6538 357.022 34.9563 356.914 36.2589Z" fill="white"/>
</svg>
