<svg width="56" height="56" viewBox="459 22 57 56" fill="none" xmlns="http://www.w3.org/2000/svg">
  <path d="M514.949 47.5334L490.467 23.0506C489.066 21.6498 486.751 21.6498 485.351 23.0506L480.296 28.1055L486.751 34.5612C488.274 34.074 489.979 34.3785 491.136 35.5965C492.355 36.8146 492.659 38.5198 492.172 40.0424L498.384 46.2545C499.906 45.7673 501.612 46.0718 502.83 47.2898C504.535 48.9342 504.535 51.6748 502.83 53.3801C501.125 55.0854 498.445 55.0854 496.74 53.3801C495.461 52.1011 495.156 50.2741 495.826 48.6906L490.04 42.9048V58.1305C490.467 58.3132 490.832 58.6177 491.197 58.9222C492.903 60.5666 492.903 63.3072 491.197 65.0125C489.492 66.6569 486.812 66.6569 485.107 65.0125C483.402 63.3072 483.402 60.6275 485.107 58.9222C485.533 58.4959 486.021 58.1914 486.508 58.0087V42.6003C486.021 42.4176 485.533 42.0522 485.107 41.6868C483.828 40.4078 483.524 38.5808 484.194 36.9973L477.799 30.6634L461.051 47.4116C459.65 48.8124 459.65 51.1267 461.051 52.5275L485.473 76.9494C486.873 78.3502 489.188 78.3502 490.588 76.9494L514.889 52.6493C516.35 51.1876 516.35 48.9342 514.949 47.5334Z" fill="white"/>
</svg>
