<svg width="56" height="56" viewBox="971 22 56 56" fill="none" xmlns="http://www.w3.org/2000/svg">
  <path d="M1017.51 45.5335L999.574 55.7481C999.251 55.9379 998.853 55.9379 998.52 55.7481L980.588 45.5335C979.885 45.1347 979.885 44.119 980.588 43.7108L998.52 33.4962C998.843 33.3063 999.242 33.3063 999.574 33.4962L1017.51 43.7108C1018.21 44.1095 1018.21 45.1252 1017.51 45.5335Z" fill="#3DCFB6"/>
  <path d="M1014.4 48.97V57.3904C1014.4 57.7701 1014.2 58.1119 1013.87 58.3017L999.574 66.4468C999.252 66.6367 998.853 66.6367 998.521 66.4468L984.224 58.3017C983.892 58.1119 983.692 57.7701 983.692 57.3904V48.97L991.619 53.4792L998.521 57.4189C998.843 57.6087 999.242 57.6087 999.574 57.4189L1006.48 53.4792L1014.4 48.97Z" fill="#3DCFB6"/>
  <path d="M1022.76 35.072L1023.25 34.7302C1023.85 34.3125 1023.77 33.4107 1023.12 33.0974L1019.19 31.2273C1018.52 30.914 1017.77 31.4361 1017.83 32.1671L1018.21 36.5055C1018.28 37.2269 1019.1 37.6161 1019.7 37.1985L1020.4 36.7143C1026.65 46.777 1024.97 60.1813 1016.23 68.3454C1007.64 76.3766 994.401 77.3544 984.746 70.6712C984.101 70.2251 983.208 70.3864 982.762 71.032C982.316 71.6775 982.477 72.5699 983.123 73.016C987.898 76.3197 993.451 77.943 998.995 77.943C1005.93 77.943 1012.86 75.3988 1018.18 70.4244C1027.93 61.3015 1029.81 46.2929 1022.76 35.072Z" fill="#3DCFB6"/>
  <path d="M1014.97 26.927C1004.23 19.4844 989.483 20.5761 979.914 29.5186C969.918 38.8693 968.124 53.8115 975.576 65.2223L974.883 65.6969C974.285 66.1146 974.361 67.0165 975.016 67.3298L978.946 69.1999C979.61 69.5132 980.36 68.9911 980.303 68.2601L979.924 63.9217C979.857 63.2002 979.031 62.811 978.433 63.2287L977.921 63.5895C971.294 53.3464 972.899 39.9705 981.86 31.5976C990.452 23.5664 1003.69 22.5791 1013.35 29.2718C1013.99 29.718 1014.89 29.5566 1015.33 28.911C1015.78 28.2655 1015.62 27.3732 1014.97 26.927Z" fill="#3DCFB6"/>
</svg>
