<svg width="56" height="56" viewBox="168 22 56 56" fill="none" xmlns="http://www.w3.org/2000/svg">
  <path d="M168 22C186.679 22 205.321 22 224 22C224 40.6793 224 59.3585 224 78C205.359 78 186.679 78 168 78C168 59.2829 168 40.6415 168 22ZM218.101 51.6448C216.967 49.603 215.417 48.2039 213.186 47.7124C211.598 47.3342 210.009 47.3342 208.421 47.6745C203.279 48.7333 201.086 54.9345 204.413 59.056C205.585 60.4929 207.136 61.3626 208.762 62.1188C210.199 62.7995 211.673 63.4423 213.11 64.1607C214.093 64.6523 214.509 65.5598 214.396 66.6563C214.282 67.7529 213.526 68.3579 212.581 68.6982C210.463 69.4544 208.005 68.7738 206.569 66.9966C206.266 66.6185 205.964 66.2026 205.661 65.7866C204.224 66.6185 202.825 67.4126 201.426 68.2444C202.296 69.946 203.506 71.3072 205.169 72.2147C208.005 73.765 210.993 73.9919 214.055 73.2356C216.059 72.7441 217.761 71.7232 218.82 69.8704C220.786 66.3538 219.652 61.9676 216.173 59.8123C214.623 58.867 212.883 58.2242 211.257 57.3923C210.463 56.9764 209.631 56.5982 208.951 56.0689C207.741 55.0858 207.968 53.1195 209.329 52.3633C210.652 51.607 212.505 52.0608 213.526 53.3842C213.753 53.6489 213.904 53.9514 214.131 54.2539C215.417 53.3842 216.74 52.5145 218.101 51.6448ZM182.747 68.8116C183.503 70.4375 184.6 71.7232 186.15 72.555C188.154 73.6516 190.347 73.8406 192.578 73.5003C194.582 73.1978 196.246 72.2903 197.342 70.4753C198.25 68.9629 198.515 67.2991 198.515 65.5219C198.515 59.7745 198.515 54.027 198.515 48.2795C198.515 48.1283 198.515 47.9392 198.515 47.7502C196.737 47.7502 195.036 47.7502 193.259 47.7502C193.259 47.977 193.259 48.1661 193.259 48.393C193.259 54.0648 193.259 59.6988 193.259 65.3707C193.259 65.9001 193.221 66.4673 193.145 66.9966C192.994 67.8663 192.54 68.5091 191.67 68.7738C190.045 69.2654 188.721 68.7738 187.776 67.3747C187.549 66.9966 187.322 66.6185 187.057 66.2404C185.583 67.1101 184.184 67.9419 182.747 68.8116Z" fill="white"/>
</svg>
