<svg width="56" height="56" viewBox="825 22 56 56" fill="none" xmlns="http://www.w3.org/2000/svg">
  <path d="M832.373 31.1466V68.9466C827.8 63.9066 825 57.2799 825 49.9999C825 42.7199 827.8 36.0933 832.373 31.1466Z" fill="white"/>
  <path d="M835.36 35.2533L851.507 67.64H835.36V35.2533Z" fill="white"/>
  <path d="M853 64L837.133 32.36H868.867L853 64Z" fill="white"/>
  <path d="M853 22C860.28 22 866.906 24.8 871.853 29.3733H834.146C839.093 24.8 845.72 22 853 22Z" fill="white"/>
  <path d="M870.64 67.64H854.493L870.64 35.2533V67.64Z" fill="white"/>
  <path d="M871.853 70.6267C866.906 75.2 860.28 78 853 78C845.72 78 839.093 75.2 834.146 70.6267H871.853Z" fill="white"/>
  <path d="M873.626 68.8533V31.1466C878.2 36.0933 881 42.7199 881 49.9999C881 57.2799 878.2 63.9066 873.626 68.8533Z" fill="white"/>
</svg>
