<svg width="52" height="56" viewBox="535 22 52 56" fill="none" xmlns="http://www.w3.org/2000/svg">
  <path d="M554.357 73.2323C550.643 72.1709 547.376 70.2166 544.523 67.4874C543.628 67.8075 542.716 68.1276 541.787 68.4308C541.356 68.5656 540.925 68.515 540.477 68.3466C539.681 68.0433 539.2 67.4537 538.852 66.7292C538.371 65.769 537.758 64.8929 537.277 63.9326C536.846 63.0397 536.215 62.2647 535.851 61.3381C535.668 60.8833 535.187 60.58 535.187 60.0072C534.756 59.2996 535.171 58.6763 535.419 58.0529C535.486 57.8845 535.569 57.6655 535.718 57.5981C536.315 57.3285 536.613 56.722 537.111 56.3514C537.343 56.1829 537.592 55.9976 537.857 55.7954C537.476 53.858 537.144 51.9206 537.144 49.9326C537.144 47.9615 537.492 46.0578 537.857 44.1709C537.21 43.5644 536.613 42.9747 535.983 42.4188C535.337 41.846 534.955 41.1384 535.038 40.3971C535.088 39.9928 535.204 39.5548 535.403 39.2178C536.016 38.2238 536.58 37.1793 537.177 36.1685C537.658 35.3598 538.073 34.5174 538.603 33.7256C538.885 33.3213 539.051 32.8496 539.333 32.4284C539.88 31.6366 540.975 31.2491 541.87 31.5187C542.666 31.7545 543.412 32.1083 544.225 32.2599C544.308 32.2768 544.374 32.3947 544.457 32.4789C547.326 29.7665 550.593 27.8291 554.341 26.7004C554.49 26.2455 554.523 25.7569 554.705 25.2852C554.838 24.9314 554.805 24.4934 554.871 24.1059C555.054 23.0951 555.667 22.5054 556.546 22.2022C556.861 22.1011 557.176 22 557.558 22C559.879 22.0337 562.201 22.0337 564.522 22C565.186 22 565.75 22.2696 566.28 22.5728C566.761 22.8255 567.026 23.3646 567.159 23.87C567.391 24.7966 567.524 25.7401 567.706 26.7172C571.437 27.7954 574.704 29.7329 577.557 32.4621C578.452 32.142 579.364 31.8219 580.293 31.5187C580.724 31.3839 581.155 31.4344 581.603 31.6029C582.399 31.9061 582.88 32.4958 583.228 33.2202C583.709 34.1805 584.322 35.0566 584.803 36.0168C585.234 36.9097 585.865 37.6847 586.229 38.6113C586.412 39.0662 586.893 39.3694 586.893 39.9422C587.324 40.6498 586.909 41.2732 586.661 41.8965C586.594 42.065 586.511 42.284 586.362 42.3514C585.765 42.6209 585.467 43.2274 584.969 43.5981C584.737 43.7665 584.488 43.9519 584.223 44.154C584.604 46.0915 584.936 48.0289 584.936 50.0168C584.936 51.988 584.637 53.8917 584.223 55.7786C584.87 56.3851 585.467 56.9747 586.097 57.5307C586.743 58.1035 587.125 58.8111 587.042 59.5523C586.992 59.9567 586.893 60.3947 586.677 60.7316C586.08 61.7088 585.516 62.7196 584.936 63.7136C584.206 64.9434 583.609 66.2744 582.764 67.4368C582.614 68.077 582.017 68.1276 581.586 68.3634C581.122 68.6161 580.658 68.5487 580.143 68.3971C579.381 68.1781 578.651 67.7906 577.855 67.6895C577.772 67.6727 577.706 67.5548 577.623 67.4705C574.754 70.2166 571.504 72.1709 567.706 73.2659C567.524 74.1757 567.358 75.1191 567.159 76.0457C566.96 76.9555 566.363 77.5283 565.517 77.7978C565.202 77.8989 564.871 78 564.506 78C562.184 77.9663 559.863 77.9663 557.541 78C556.878 78 556.314 77.7304 555.783 77.4272C555.302 77.1745 555.02 76.6354 554.921 76.13C554.739 75.136 554.556 74.2094 554.357 73.2323Z" fill="white"/>
  <path d="M552.509 52.2921C551.53 52.3258 550.502 52.3426 549.474 52.3763C549.441 52.3763 549.391 52.4437 549.292 52.528C549.308 51.4834 549.888 50.6411 549.955 49.6808C550.452 48.8384 550.502 47.8444 550.834 46.901C550.933 47.0021 551.082 47.1032 551.082 47.1874C551.099 47.9118 551.514 48.5352 551.646 49.2259C551.746 49.6976 552.011 50.1525 552.077 50.6242C552.144 51.2307 552.542 51.6856 552.509 52.2921Z" fill="white"/>
  <path d="M565.851 49.0222C565.735 49.2075 565.635 49.3929 565.503 49.5613C565.271 49.8309 564.972 49.9825 564.591 49.9657C563.43 49.9488 562.269 49.9657 561.075 49.9657C561.075 47.9608 561.075 45.956 561.075 43.9007C562.286 43.9007 563.529 43.8838 564.757 43.9007C565.337 43.9175 565.834 44.524 565.851 45.1642C565.851 46.2256 565.851 47.287 565.851 48.3483C565.851 48.5842 565.851 48.8032 565.851 49.0222Z" fill="white"/>
</svg>
