<svg width="56" height="56" viewBox="606 24 56 54" fill="none" xmlns="http://www.w3.org/2000/svg">
  <path fill-rule="evenodd" clip-rule="evenodd" d="M660.799 37.769L655.836 44.7081L650.873 37.769H653.579C653.373 32.6132 649.114 28.4886 643.909 28.4886C639.516 28.4886 635.791 31.4365 634.614 35.452C633.182 34.991 631.702 34.6998 630.197 34.5664C630.367 33.9234 630.586 33.2804 630.852 32.6618C631.568 30.9755 632.588 29.4591 633.886 28.161C635.184 26.863 636.701 25.8318 638.388 25.1282C640.135 24.3761 641.991 24 643.909 24C645.826 24 647.682 24.3761 649.43 25.1161C651.116 25.8318 652.633 26.8509 653.931 28.1489C655.23 29.447 656.249 30.9634 656.965 32.6496C657.656 34.2752 658.033 35.9979 658.069 37.769H660.799Z" fill="white"/>
  <path fill-rule="evenodd" clip-rule="evenodd" d="M653.868 76.4091V73.4248H636.759C636.881 73.3642 637.002 73.3157 637.123 73.255C638.98 72.3694 640.691 71.2169 642.22 69.8097C642.426 69.6156 642.62 69.4336 642.802 69.2517C643.008 69.0454 643.227 68.8271 643.433 68.5966C643.676 68.3297 643.918 68.0507 644.137 67.7717H653.868V64.7874L661.998 70.5982L653.868 76.4091Z" fill="white"/>
  <path fill-rule="evenodd" clip-rule="evenodd" d="M647.559 54.8508C647.559 57.4347 647.049 59.9459 646.054 62.3115C645.205 64.3253 644.016 66.1693 642.535 67.7827C642.341 67.989 642.147 68.1952 641.953 68.4014C641.771 68.5834 641.589 68.7532 641.407 68.9352C639.975 70.2575 638.373 71.3372 636.626 72.1743C636.383 72.2956 636.129 72.4048 635.874 72.514C635.862 72.514 635.862 72.5261 635.849 72.5261C634.393 73.1448 632.828 73.4481 631.239 73.4481H606V67.807H629.431C636.517 67.807 642.329 62.1417 642.426 55.057C642.426 54.9963 642.426 54.9357 642.426 54.875C642.426 47.1353 636.141 40.8512 628.399 40.8512C620.658 40.827 614.372 47.0989 614.372 54.8508H617.624L611.812 62.9787L606 54.8508H609.252C609.252 52.2668 609.762 49.7556 610.757 47.39C611.727 45.1093 613.098 43.0591 614.858 41.3001C616.617 39.5411 618.668 38.1581 620.949 37.1997C623.315 36.2049 625.827 35.6954 628.411 35.6954C628.933 35.6954 629.443 35.7197 629.952 35.7561C631.457 35.8774 632.925 36.1686 634.357 36.6417C634.867 36.8115 635.364 36.9935 635.862 37.2118C638.143 38.1824 640.193 39.5532 641.953 41.3122C643.712 43.0713 645.096 45.1215 646.054 47.4021C647.049 49.7556 647.559 52.2668 647.559 54.8508Z" fill="white"/>
</svg>
