<svg width="60" height="60" viewBox="896 20 60 60" fill="none" xmlns="http://www.w3.org/2000/svg">
  <path d="M930.505 79.003C928.972 80.9327 925.863 79.8767 925.825 77.4109L925.284 41.3616H949.524C953.914 41.3616 956.364 46.4326 953.635 49.8687L930.505 79.003Z" fill="url(#paint0_linear_supabase)"/>
  <path d="M930.505 79.003C928.972 80.9327 925.863 79.8767 925.825 77.4109L925.284 41.3616H949.524C953.914 41.3616 956.364 46.4326 953.635 49.8687L930.505 79.003Z" fill="url(#paint1_linear_supabase)" fill-opacity="0.2"/>
  <path d="M920.646 20.997C922.18 19.0672 925.289 20.1233 925.326 22.5891L925.562 58.6384H901.627C897.237 58.6384 894.787 53.5674 897.516 50.1313L920.646 20.997Z" fill="white"/>
  <defs>
    <linearGradient id="paint0_linear_supabase" x1="923.343" y1="54.0016" x2="944.887" y2="63.034" gradientUnits="userSpaceOnUse">
      <stop stop-color="#CCCECE"/>
      <stop offset="1" stop-color="white"/>
    </linearGradient>
    <linearGradient id="paint1_linear_supabase" x1="924.372" y1="31.6912" x2="934.198" y2="50.1849" gradientUnits="userSpaceOnUse">
      <stop/>
      <stop offset="1" stop-opacity="0"/>
    </linearGradient>
  </defs>
</svg>
