<svg width="56" height="56" viewBox="95 22 56 56" fill="none" xmlns="http://www.w3.org/2000/svg">
  <path d="M150.898 26.4566C150.491 24.3174 148.835 22.5857 146.722 22.1273C146.62 22.1019 146.518 22.1019 146.391 22.0764C146.365 22.0764 146.34 22.0255 146.314 22H99.6094C99.5839 22.0255 99.5584 22.0764 99.5075 22.0764C97.3938 22.4329 95.6112 24.1137 95.1273 26.2528C95.1019 26.3292 95.0509 26.4311 95 26.533V73.3652C95.0255 73.4161 95.0764 73.4416 95.0764 73.4925C95.5857 75.8354 97.0118 77.2869 99.3292 77.8727C99.4056 77.8981 99.4566 77.9491 99.5075 78H146.391C146.442 77.9745 146.467 77.9236 146.518 77.8981C148.835 77.3633 150.261 75.9627 150.847 73.6453C150.873 73.5689 150.847 73.467 150.873 73.3906C150.873 73.3652 150.924 73.3397 150.949 73.3142V26.6094C150.949 26.5584 150.898 26.533 150.898 26.4566ZM127.469 53.0432H127.189C125.075 53.0432 122.936 53.0432 120.823 53.0432C120.721 53.0432 120.619 53.0432 120.517 53.0432C120.517 53.0687 120.492 53.0687 120.492 53.0941C120.492 53.196 120.492 53.2979 120.492 53.3997V73.0341H114.915V53.0687H107.911V48.6121H127.444V53.0432H127.469ZM146.263 66.362C146.212 67.2278 146.085 68.0682 145.729 68.8831C145.627 69.1378 145.55 69.367 145.423 69.6216C144.965 70.5894 144.201 71.2769 143.309 71.8372C142.291 72.4739 141.17 72.8304 139.999 73.0596C138.7 73.3142 137.401 73.3906 136.077 73.3397C135.44 73.3142 134.804 73.3142 134.167 73.2378C132.664 73.0596 131.187 72.7285 129.812 72.0664C129.736 72.0409 129.634 71.9136 129.634 71.8372C129.634 70.1819 129.634 68.5266 129.634 66.8713C129.634 66.8458 129.634 66.8204 129.634 66.7694C130.041 67.0496 130.449 67.3297 130.856 67.5589C131.849 68.1446 132.945 68.5521 134.065 68.8067C135.033 69.0359 136 69.0614 136.968 69.0105C137.707 68.985 138.445 68.8067 139.107 68.4757C139.693 68.1701 140.177 67.7626 140.304 67.075C140.432 66.4638 140.381 65.8527 140.024 65.3179C139.515 64.5539 138.802 64.07 138.012 63.6626C137.121 63.2296 136.23 62.8477 135.313 62.4402C133.963 61.829 132.639 61.1669 131.544 60.1483C130.653 59.3079 129.99 58.3147 129.685 57.1178C129.507 56.4047 129.456 55.6917 129.481 54.9786C129.507 53.2215 130.143 51.719 131.391 50.4711C132.41 49.4525 133.658 48.8413 135.033 48.4848C135.975 48.2556 136.917 48.0773 137.885 48.0518C138.573 48.0518 139.26 47.9754 139.922 48.0009C140.966 48.0264 141.985 48.0773 143.004 48.332C143.666 48.5102 144.353 48.6885 145.015 48.8413C145.143 48.8668 145.194 48.9432 145.194 49.096C145.194 50.6749 145.194 52.2792 145.194 53.8581C145.194 53.909 145.194 53.96 145.168 54.0364C144.965 53.909 144.786 53.8072 144.608 53.7053C143.793 53.2469 142.927 52.9413 142.036 52.7121C141.043 52.4829 140.05 52.3301 139.031 52.3556C138.343 52.3811 137.63 52.4829 136.994 52.7121C136.204 52.9923 135.568 53.4507 135.287 54.291C135.058 54.9532 135.236 55.5134 135.644 56.0482C136.153 56.7103 136.841 57.1687 137.579 57.5252C138.573 58.0091 139.591 58.4166 140.559 58.8749C141.679 59.4097 142.8 59.9445 143.742 60.734C144.557 61.4216 145.296 62.1855 145.703 63.2042C145.932 63.8154 146.136 64.452 146.136 65.1396C146.238 65.5471 146.289 65.9545 146.263 66.362Z" fill="white"/>
</svg>
